<svg xmlns="http://www.w3.org/2000/svg" version="1.1" xmlns:xlink="http://www.w3.org/1999/xlink" xmlns:svgjs="http://svgjs.dev/svgjs" width="100%" height="100%" viewBox="0 0 1000 600"><rect width="1000" height="600" x="0" y="0" fill="#ffffff"/><g><rect width="333.3333333333333" height="333.3333333333333" rx="13.333333333333334" ry="13.333333333333334" y="218.2346219790379" fill="#292b2c" transform="matrix(0.6377147227196872,0,0,0.6377147227196871,0,54.54277323634723)" x="196.01240539550778"/><path d="M380.25348094387294 352.96675889531684L380.25348094387294 352.96675889531684Q408.5272896116823 352.96675889531684 408.5272896116823 381.686996121039L408.5272896116823 381.686996121039L408.5272896116823 459.90127946735794L390.10467112181493 459.90127946735794L390.10467112181493 386.8358054889664Q390.10467112181493 376.32985342608566 386.77133788939955 372.3715202125923Q383.46776656084495 368.413186999099 375.3130049029715 368.413186999099L375.3130049029715 368.413186999099Q365.6701480520555 368.413186999099 356.02729120113946 372.9072344820877Q346.38443435022344 377.4012819650763 333.1106252282835 385.9727102770017L333.1106252282835 385.9727102770017L332.24753001631876 372.9072344820877Q344.44991059926804 363.68104428522355 356.47371975905224 358.32390159027017Q368.46776701497555 352.96675889531684 380.25348094387294 352.96675889531684ZM316.8308638163974 309.9012840086641L335.04514897923883 309.9012840086641L335.2534823062648 351.2703303752483Q335.2534823062648 358.32390159027017 334.7177680367694 364.54413949718827Q334.1820537672741 370.7643774041063 333.1106252282835 375.46675821412094L333.1106252282835 375.46675821412094L335.04514897923883 378.68104383109295L335.04514897923883 459.90127946735794L316.8308638163974 459.90127946735794L316.8308638163974 309.9012840086641Z " fill="#ffffff" transform="matrix(0.6377147227196872,0,0,0.6377147227196871,0,54.54277323634723)"/><path d="M612.6790769565508 312.00492192786396L631.2026438928914 312.00492192786396L631.2026438928914 457.1548912334479L612.6790769565508 457.1548912334479L612.6790769565508 312.00492192786396ZM629.5080589050243 371.54913236360875L700.4176755524985 371.54913236360875L700.4176755524985 387.5308218181487L629.5080589050243 387.5308218181487L629.5080589050243 371.54913236360875ZM698.1095339310933 312.00492192786396L716.6038838848846 312.00492192786396L716.6038838848846 457.1548912334479L698.1095339310933 457.1548912334479L698.1095339310933 312.00492192786396ZM793.3861140247949 352.17827293333454L793.3861140247949 352.17827293333454Q816.525964203946 352.17827293333454 826.9564269740936 360.5927639075713Q837.3576727616918 369.007254881808 837.3576727616918 385.6317179524355L837.3576727616918 385.6317179524355Q837.5621916395379 399.3052657855702 831.6895781471018 406.9893321960712Q825.7877476721163 414.6733986065721 812.9614923329151 414.6733986065721L812.9614923329151 414.6733986065721L753.2127630193244 414.6733986065721L753.2127630193244 400.7661149130419L808.3159921075553 400.7661149130419Q815.2696339543204 400.7661149130419 817.3732566978796 396.0329637400337Q819.4768794414388 391.2998125670255 819.4768794414388 385.6317179524355L819.4768794414388 385.6317179524355Q819.2723605635928 375.7563778507271 813.5750489664532 371.54913236360875Q807.9069543518632 367.3418868764904 794.2334065187285 367.3418868764904L794.2334065187285 367.3418868764904Q783.072519184845 367.3418868764904 776.6740000065191 370.58497193947744Q770.2462638456439 373.85727398501393 767.6167354161948 381.95037815120696Q764.987206986746 390.04348231739993 764.987206986746 404.5643226444682L764.987206986746 404.5643226444682Q764.987206986746 420.98426683724966 768.2595090322824 429.6032766893324Q771.5025940952695 438.2222865414152 778.6607548198806 441.377720656754Q785.8189155444917 444.5331547720928 797.5933595119133 444.5331547720928L797.5933595119133 444.5331547720928Q805.803331608304 444.5331547720928 815.5910207623641 443.80273020835693Q825.3787099164242 443.0723056446211 833.1504272745734 442.0204942728415L833.1504272745734 442.0204942728415L835.0495311402866 453.9994571181091Q830.1995120370807 455.8985609838223 823.1582192426673 457.1548912334479Q816.1169264482539 458.4112214830735 808.637378915599 459.05399509916106Q801.1870483654935 459.66755173269917 795.2852178905081 459.66755173269917L795.2852178905081 459.66755173269917Q777.6089434481011 459.66755173269917 766.886310852459 454.3208439261529Q756.1636782568171 448.9449191370572 751.2260082059629 437.0536072394379Q746.2591211725593 425.19151232436803 746.2591211725593 405.6161340162478L746.2591211725593 405.6161340162478Q746.2591211725593 385.4271990745895 751.2260082059629 373.7404060548162Q756.1636782568171 362.08283001759236 766.5649240444153 357.11594298418873Q776.995386814563 352.17827293333454 793.3861140247949 352.17827293333454ZM863.6529570561817 354.7201504151352L881.5337503764348 354.7201504151352L881.5337503764348 426.6523614518397Q881.3292314985888 436.32318267570207 885.0982222474656 440.3259092849744Q888.8964299788919 444.3286358942467 897.7199587088209 444.3286358942467L897.7199587088209 444.3286358942467Q906.368185543453 444.3286358942467 914.870327465338 440.2090413547767Q923.4016863697726 436.118663797856 935.3806492150401 428.3469464397068L935.3806492150401 428.3469464397068L937.6887908364454 440.73494704066644Q925.7098279911778 450.20124938668283 914.4612897096459 455.05126848988874Q903.2127514281142 459.90128759309465 891.6428263385386 459.90128759309465L891.6428263385386 459.90128759309465Q863.6529570561817 459.90128759309465 863.6529570561817 431.7068994328916L863.6529570561817 431.7068994328916L863.6529570561817 354.7201504151352ZM933.4815453493269 354.7201504151352L951.36233866958 354.7201504151352L951.36233866958 457.1548912334479L937.0752342029073 457.1548912334479L935.3806492150401 437.81324878572315L933.4815453493269 434.65781467038437L933.4815453493269 354.7201504151352ZM984.2022270551429 354.7201504151352L998.0802937661236 354.7201504151352L1000.3884353875291 374.266311740706L1002.083020375396 377.42174585604477L1002.083020375396 457.1548912334479L984.2022270551429 457.1548912334479L984.2022270551429 354.7201504151352ZM1043.7172205083384 352.17827293333454L1048.362720733698 352.17827293333454L1046.2590979901393 369.007254881808L1040.3572675151536 369.007254881808Q1031.3000029248292 369.007254881808 1022.2719553170543 372.6885946830366Q1013.21469072673 376.36993448426523 1000.183916509683 383.11905745318427L1000.183916509683 383.11905745318427L998.6938503996618 371.9581701193008Q1010.0592566113913 362.69638665113047 1021.5415307533185 357.4373297922325Q1032.9945879126963 352.17827293333454 1043.7172205083384 352.17827293333454L1043.7172205083384 352.17827293333454ZM1110.6241105465401 352.17827293333454L1110.6241105465401 352.17827293333454Q1133.7639607256915 352.17827293333454 1144.1652065132894 360.5927639075713Q1154.5956692834375 369.007254881808 1154.5956692834375 385.6317179524355L1154.5956692834375 385.6317179524355Q1154.8001881612831 399.3052657855702 1148.898357686298 406.9893321960712Q1143.0257441938616 414.6733986065721 1130.1702718721112 414.6733986065721L1130.1702718721112 414.6733986065721L1070.4507595410696 414.6733986065721L1070.4507595410696 400.7661149130419L1125.5539886293009 400.7661149130419Q1132.507630476066 400.7661149130419 1134.6112532196248 396.0329637400337Q1136.714875963184 391.2998125670255 1136.714875963184 385.6317179524355L1136.714875963184 385.6317179524355Q1136.4811401027887 375.7563778507271 1130.813045488199 371.54913236360875Q1125.1449508736086 367.3418868764904 1111.471403040474 367.3418868764904L1111.471403040474 367.3418868764904Q1100.3105157065902 367.3418868764904 1093.882779545715 370.58497193947744Q1087.4842603673892 373.85727398501393 1084.8547319379404 381.95037815120696Q1082.2252035084912 390.04348231739993 1082.2252035084912 404.5643226444682L1082.2252035084912 404.5643226444682Q1082.2252035084912 420.98426683724966 1085.4682885714783 429.6032766893324Q1088.7405906170147 438.2222865414152 1095.898751341626 441.377720656754Q1103.0569120662371 444.5331547720928 1114.8313560336587 444.5331547720928L1114.8313560336587 444.5331547720928Q1123.0413281300494 444.5331547720928 1132.79980030156 443.80273020835693Q1142.58748945562 443.0723056446211 1150.3884237963189 442.0204942728415L1150.3884237963189 442.0204942728415L1152.2583106794827 453.9994571181091Q1147.4375085588263 455.8985609838223 1140.3962157644128 457.1548912334479Q1133.32570598745 458.4112214830735 1125.8753754373442 459.05399509916106Q1118.3958279046897 459.66755173269917 1112.5232144122533 459.66755173269917L1112.5232144122533 459.66755173269917Q1094.8469399698465 459.66755173269917 1084.1243073742044 454.3208439261529Q1073.372457796013 448.9449191370572 1068.4347877451587 437.0536072394379Q1063.4971176943045 425.19151232436803 1063.4971176943045 405.6161340162478L1063.4971176943045 405.6161340162478Q1063.4971176943045 385.4271990745895 1068.4347877451587 373.7404060548162Q1073.372457796013 362.08283001759236 1083.8029205661605 357.11594298418873Q1094.2041663537589 352.17827293333454 1110.6241105465401 352.17827293333454ZM1244.4086736403947 354.7201504151352L1265.2403821981407 354.7201504151352L1233.0432674286653 392.3516239388051Q1231.5824183011937 394.2507278045183 1229.4787955576344 396.26669960042915Q1227.375172814075 398.2534544137906 1225.8851067040541 399.3052657855702L1225.8851067040541 399.3052657855702L1225.8851067040541 399.71430354126227Q1227.375172814075 400.7661149130419 1229.4787955576344 403.1911244646448Q1231.5824183011937 405.6161340162478 1233.0432674286653 407.924275637653L1233.0432674286653 407.924275637653L1268.6003351913255 457.1548912334479L1247.7686266335795 457.1548912334479L1207.1862378724168 398.4579732916367L1244.4086736403947 354.7201504151352ZM1181.504510211465 309.9012991843048L1199.3853035317184 309.9012991843048L1199.5898224095645 375.3181231124856Q1199.5898224095645 381.8335102210092 1199.0639167236745 387.4139538879509Q1198.5380110377846 392.99439755489266 1197.4861996660052 399.1007469077242L1197.4861996660052 399.1007469077242Q1198.5380110377846 404.9733604001603 1198.9762657760261 410.87519087514573Q1199.3853035317184 416.7770213501313 1199.3853035317184 422.24059708687525L1199.3853035317184 422.24059708687525L1199.3853035317184 457.1548912334479L1181.504510211465 457.1548912334479L1181.504510211465 309.9012991843048ZM1193.074435301041 392.7898786770466L1216.8570590962795 392.7898786770466L1216.8570590962795 405.8206528940938L1193.074435301041 405.8206528940938L1193.074435301041 392.7898786770466ZM1336.9680743569988 352.17827293333454L1336.9680743569988 352.17827293333454Q1348.3334805687286 352.17827293333454 1356.2220658570754 355.246056101025Q1364.1106511454223 358.28462228616604 1368.1133777546947 365.4427830107772Q1372.086887381418 372.6009437353883 1372.086887381418 384.98894433634797L1372.086887381418 384.98894433634797L1372.086887381418 457.1548912334479L1358.004301792591 457.1548912334479L1355.257905432944 434.8623335482304L1354.0015751833184 432.5541919268252L1354.0015751833184 384.98894433634797Q1354.0015751833184 375.52264199033164 1349.706678748552 371.432264433411Q1345.382565331236 367.3418868764904 1333.169866625573 367.3418868764904L1333.169866625573 367.3418868764904Q1325.1936303895773 367.3418868764904 1313.0977996141123 368.1599623878745Q1301.001968838647 369.007254881808 1289.2275248712253 370.0590662535876L1289.2275248712253 370.0590662535876L1287.5329398833583 356.8237731586944Q1294.691100607969 355.5382259265194 1303.1932425298542 354.4864145547397Q1311.7246014342886 353.4346031829602 1320.5481301642176 352.8210465494221Q1329.4008758766959 352.17827293333454 1336.9680743569988 352.17827293333454ZM1311.3155636785964 394.04620892667225L1363.6723964071812 394.04620892667225L1363.467877529335 407.51523788196096L1314.4709977939356 407.719756759807Q1307.1083181914782 407.924275637653 1304.1574029539856 411.60561543888156Q1301.2064877164926 415.28695524011016 1301.2064877164926 421.8023423486338L1301.2064877164926 421.8023423486338L1301.2064877164926 428.3469464397068Q1301.2064877164926 436.32318267570207 1305.004695447919 440.0045224769306Q1308.773686196796 443.6858622781592 1317.1881771710327 443.6858622781592L1317.1881771710327 443.6858622781592Q1323.0900076460184 443.6858622781592 1330.5403381961237 441.4945885869517Q1338.0198857287787 439.2740979131948 1345.5870842090817 434.65781467038437Q1353.1542826893851 430.0123144450245 1359.4651509200626 422.85415372041336L1359.4651509200626 422.85415372041336L1359.4651509200626 436.118663797856Q1357.1570092986572 439.0695790353488 1352.8621128638906 442.9554377144234Q1348.5379994465748 446.841296393498 1342.5485180239407 450.52263619472654Q1336.559036601307 454.20397599595515 1329.2840079464981 456.6289855475581Q1322.0381962742385 459.05399509916106 1313.6237053000018 459.05399509916106L1313.6237053000018 459.05399509916106Q1304.5664407096774 459.05399509916106 1297.642015845462 455.78169305362456Q1290.688373998697 452.53860799063744 1286.8025153196222 446.1108718297622Q1282.9166566405474 439.68313566888685 1282.9166566405474 430.450569183266L1282.9166566405474 430.450569183266L1282.9166566405474 419.28968184938253Q1282.9166566405474 407.3107190041149 1290.3669871906532 400.6784639653936Q1297.8465347233082 394.04620892667225 1311.3155636785964 394.04620892667225L1311.3155636785964 394.04620892667225Z " fill="#292b2c" transform="matrix(0.6377147227196872,0,0,0.6377147227196871,0,54.54277323634723)"/></g></svg>